# xmcd
#
# Track frame offsets:
#	150
#	12662
#	23744
#	32817
#	42940
#	56425
#	68349
#	80141
#	91046
#	102890
#	115856
#
# Disc length: 1749 seconds
#
# Revision: 1
# Processed by: cddbd v1.5.1PL0 Copyright (c) Steve Scherf et al.
# Submitted via: audiograbber 1.83.01
#
DISCID=8006d30b
DTITLE=Marty Robbins - Tonight Carmen
DYEAR=1967
DGENRE=Country
TTITLE0=Tonight Carmen
TTITLE1=Waiting In Reno
TTITLE2=Is There Anything Left I Can Say
TTITLE3=Loves Gone Away
TTITLE4=Bound for Old Mexico
TTITLE5=Don't Go Away Señor
TTITLE6=The Girl with Gardenias In Her Hair
TTITLE7=In the Valley of the Rio Grande
TTITLE8=The Mission of Guadalajara
TTITLE9=Chapel Bells Chime
TTITLE10=Spanish Lullaby
EXTD=Columbia CS-9525/CL-2725
EXTT0=
EXTT1=
EXTT2=
EXTT3=
EXTT4=
EXTT5=
EXTT6=
EXTT7=
EXTT8=
EXTT9=
EXTT10=
PLAYORDER=
